<?xml version="1.0" encoding="UTF-8"?>
<svg id="Layer_1" xmlns="http://www.w3.org/2000/svg" version="1.1" viewBox="0 0 512 512">
  <!-- Generator: Adobe Illustrator 29.1.0, SVG Export Plug-In . SVG Version: 2.1.0 Build 142)  -->
  <defs>
    <style>
      .st0 {
        fill: #008cec;
      }

      .st1 {
        fill: #4d4d4d;
      }

      .st2 {
        fill: #d10000;
      }

      .st3 {
        fill: #ff0909;
        stroke: #00c333;
        stroke-miterlimit: 10;
        stroke-width: 1.47px;
      }

      .st4 {
        fill: #ff9f9f;
      }

      .st5 {
        fill: #e6e6e6;
      }
    </style>
  </defs>
  <circle class="st4" cx="351.42" cy="133.19" r="122.95"/>
  <path class="st5" d="M234.6,121.6c.03-.59.05-1.18.05-1.78,0-29.95-40.57-54.22-90.62-54.22s-90.62,24.28-90.62,54.22c0,.48.01.96.03,1.44-17.99,9.91-29.27,24.12-29.27,39.91,0,29.95,40.57,54.22,90.62,54.22,11.23,0,21.98-1.23,31.9-3.46,16.45,10.08,39.41,16.33,64.81,16.33,50.05,0,90.62-24.28,90.62-54.22,0-25.17-28.66-46.33-67.52-52.44Z"/>
  <path class="st5" d="M321.21,237.22c-.02-.38-.03-.76-.03-1.15,0-19.29,26.14-34.93,58.38-34.93,32.24,0,58.38,15.64,58.38,34.93,0,.31,0,.62-.02.93,11.59,6.38,18.86,15.54,18.86,25.71,0,19.29-26.14,34.93-58.38,34.93-7.23,0-14.16-.79-20.55-2.23-10.6,6.49-25.39,10.52-41.76,10.52-32.24,0-58.38-15.64-58.38-34.93,0-16.22,18.47-29.85,43.5-33.79Z"/>
  <g>
    <path class="st3" d="M180.38,280.62"/>
    <g>
      <rect class="st1" x="185.06" y="71.92" width="94.35" height="41.02" rx="14.86" ry="14.86"/>
      <path class="st2" d="M225.53,10.25h13.39c1.85,0,3.36,1.5,3.36,3.36v58.32h-20.11V13.6c0-1.85,1.5-3.36,3.36-3.36Z"/>
      <g>
        <path class="st2" d="M270.21,243.41h-37.98V112.95h27.41c3.52,43.49,7.05,86.98,10.57,130.47Z"/>
        <path class="st2" d="M194.25,243.41h37.98V112.95h-27.41c-3.52,43.49-7.05,86.98-10.57,130.47Z"/>
      </g>
      <g>
        <path class="st1" d="M298.27,281.47h-132.08c-2.06-2.22-4.15-4.44-6.26-6.68-2.15-2.27-4.29-4.53-6.42-6.76v-11.19c0-7.39,5.71-13.43,12.68-13.43h132.08c6.97,0,12.68,6.04,12.68,13.43v11.19c-2.14,2.23-4.28,4.48-6.42,6.76-2.11,2.23-4.19,4.46-6.26,6.68Z"/>
        <rect class="st0" x="181.48" y="253.54" width="16.62" height="16.28" rx="2.67" ry="2.67"/>
        <rect class="st0" x="223.92" y="254.3" width="16.62" height="16.28" rx="2.67" ry="2.67"/>
        <rect class="st0" x="262.77" y="253.54" width="16.62" height="16.28" rx="2.67" ry="2.67"/>
      </g>
    </g>
    <g>
      <rect class="st1" x="62.52" y="481.6" width="111.46" height="25.34" rx="12.67" ry="12.67"/>
      <rect class="st1" x="287.61" y="482.44" width="111.46" height="25.34" rx="12.67" ry="12.67"/>
      <rect class="st1" x="202.43" y="482.44" width="59.61" height="25.34" rx="9.6" ry="9.6"/>
      <rect class="st2" x="220.05" y="281.46" width="25.67" height="200.99"/>
      <path class="st2" d="M191.16,281.46s-46.98,144.66-97.12,200.15h51.59s24.93-69.04,74.42-103.22v-96.93h-28.89Z"/>
      <path class="st2" d="M274.6,281.46s46.98,145.27,97.12,200.99h-51.59s-24.93-69.33-74.42-103.65v-97.33h28.89Z"/>
    </g>
  </g>
</svg>